<mxfile host="app.diagrams.net" agent="Mozilla/5.0 (Windows NT 10.0; Win64; x64) AppleWebKit/537.36 (KHTML, like Gecko) Chrome/134.0.0.0 Safari/537.36 Edg/134.0.0.0" version="26.2.5">
  <diagram name="Simulation service" id="5oLF9QemRC5jOvn8HbhS">
    <mxGraphModel dx="1976" dy="944" grid="0" gridSize="10" guides="1" tooltips="1" connect="1" arrows="1" fold="1" page="0" pageScale="1" pageWidth="1169" pageHeight="827" math="0" shadow="0">
      <root>
        <mxCell id="0" />
        <mxCell id="1" parent="0" />
        <mxCell id="4RVRERGMYZYqvgAxQxt6-176" value="" style="group" vertex="1" connectable="0" parent="1">
          <mxGeometry x="-74" y="60" width="1084" height="1019" as="geometry" />
        </mxCell>
        <mxCell id="4RVRERGMYZYqvgAxQxt6-140" value="" style="rounded=0;whiteSpace=wrap;html=1;" vertex="1" parent="4RVRERGMYZYqvgAxQxt6-176">
          <mxGeometry x="68" y="510" width="120" height="60" as="geometry" />
        </mxCell>
        <mxCell id="4RVRERGMYZYqvgAxQxt6-139" value="" style="rounded=0;whiteSpace=wrap;html=1;" vertex="1" parent="4RVRERGMYZYqvgAxQxt6-176">
          <mxGeometry x="60" y="520" width="120" height="60" as="geometry" />
        </mxCell>
        <mxCell id="4RVRERGMYZYqvgAxQxt6-68" value="" style="rounded=0;whiteSpace=wrap;html=1;glass=0;fillColor=default;movable=1;resizable=1;rotatable=1;deletable=1;editable=1;locked=0;connectable=1;container=0;" vertex="1" parent="4RVRERGMYZYqvgAxQxt6-176">
          <mxGeometry x="224" y="190" width="860" height="603" as="geometry" />
        </mxCell>
        <mxCell id="4RVRERGMYZYqvgAxQxt6-65" value="" style="endArrow=classic;html=1;rounded=0;exitX=1;exitY=0.5;exitDx=0;exitDy=0;entryX=0.25;entryY=0;entryDx=0;entryDy=0;edgeStyle=orthogonalEdgeStyle;" edge="1" parent="4RVRERGMYZYqvgAxQxt6-176" target="4RVRERGMYZYqvgAxQxt6-61">
          <mxGeometry width="50" height="50" relative="1" as="geometry">
            <mxPoint x="434" y="165" as="sourcePoint" />
            <mxPoint x="607" y="180" as="targetPoint" />
          </mxGeometry>
        </mxCell>
        <mxCell id="4RVRERGMYZYqvgAxQxt6-1" value="Simulation Service" style="rounded=1;whiteSpace=wrap;html=1;fillColor=#d5e8d4;strokeColor=#82b366;" vertex="1" parent="4RVRERGMYZYqvgAxQxt6-176">
          <mxGeometry x="144" width="120" height="60" as="geometry" />
        </mxCell>
        <mxCell id="4RVRERGMYZYqvgAxQxt6-10" value="" style="endArrow=none;dashed=1;html=1;rounded=0;entryX=0.5;entryY=1;entryDx=0;entryDy=0;" edge="1" parent="4RVRERGMYZYqvgAxQxt6-176">
          <mxGeometry width="50" height="50" relative="1" as="geometry">
            <mxPoint x="206" y="887" as="sourcePoint" />
            <mxPoint x="205.99999999999977" y="60.000000000000114" as="targetPoint" />
          </mxGeometry>
        </mxCell>
        <mxCell id="4RVRERGMYZYqvgAxQxt6-33" value="" style="group" vertex="1" connectable="0" parent="4RVRERGMYZYqvgAxQxt6-176">
          <mxGeometry x="782" y="200" width="150" height="90" as="geometry" />
        </mxCell>
        <mxCell id="4RVRERGMYZYqvgAxQxt6-34" value="" style="rounded=1;whiteSpace=wrap;html=1;fillColor=#f5f5f5;fontColor=#333333;strokeColor=#666666;" vertex="1" parent="4RVRERGMYZYqvgAxQxt6-33">
          <mxGeometry x="100" width="50" height="30" as="geometry" />
        </mxCell>
        <mxCell id="4RVRERGMYZYqvgAxQxt6-35" value="" style="rounded=1;whiteSpace=wrap;html=1;fillColor=#f5f5f5;fontColor=#333333;strokeColor=#666666;" vertex="1" parent="4RVRERGMYZYqvgAxQxt6-33">
          <mxGeometry x="90" y="10" width="50" height="30" as="geometry" />
        </mxCell>
        <mxCell id="4RVRERGMYZYqvgAxQxt6-36" value="" style="rounded=1;whiteSpace=wrap;html=1;fillColor=#f5f5f5;fontColor=#333333;strokeColor=#666666;" vertex="1" parent="4RVRERGMYZYqvgAxQxt6-33">
          <mxGeometry x="80" y="20" width="50" height="30" as="geometry" />
        </mxCell>
        <mxCell id="4RVRERGMYZYqvgAxQxt6-37" value="Worker(s)&lt;div&gt;Container&lt;/div&gt;" style="rounded=1;whiteSpace=wrap;html=1;fillColor=#f5f5f5;fontColor=#333333;strokeColor=#666666;" vertex="1" parent="4RVRERGMYZYqvgAxQxt6-33">
          <mxGeometry y="30" width="120" height="40" as="geometry" />
        </mxCell>
        <mxCell id="4RVRERGMYZYqvgAxQxt6-20" value="DOCKER" style="rounded=1;whiteSpace=wrap;html=1;fillColor=#fff2cc;strokeColor=#d6b656;" vertex="1" parent="4RVRERGMYZYqvgAxQxt6-176">
          <mxGeometry x="344" y="64" width="100" height="30" as="geometry" />
        </mxCell>
        <mxCell id="4RVRERGMYZYqvgAxQxt6-51" style="edgeStyle=orthogonalEdgeStyle;rounded=0;orthogonalLoop=1;jettySize=auto;html=1;exitX=1;exitY=0.5;exitDx=0;exitDy=0;entryX=0;entryY=0.5;entryDx=0;entryDy=0;" edge="1" parent="4RVRERGMYZYqvgAxQxt6-176" source="4RVRERGMYZYqvgAxQxt6-20" target="4RVRERGMYZYqvgAxQxt6-3">
          <mxGeometry relative="1" as="geometry">
            <mxPoint x="644" y="49" as="sourcePoint" />
            <Array as="points">
              <mxPoint x="494" y="79" />
              <mxPoint x="494" y="49" />
            </Array>
          </mxGeometry>
        </mxCell>
        <mxCell id="4RVRERGMYZYqvgAxQxt6-55" value="&amp;nbsp;Dockerfile&amp;nbsp;" style="edgeLabel;html=1;align=center;verticalAlign=bottom;resizable=0;points=[];labelBorderColor=none;spacingBottom=-4;" vertex="1" connectable="0" parent="4RVRERGMYZYqvgAxQxt6-51">
          <mxGeometry x="0.19" y="-4" relative="1" as="geometry">
            <mxPoint as="offset" />
          </mxGeometry>
        </mxCell>
        <mxCell id="4RVRERGMYZYqvgAxQxt6-63" style="edgeStyle=orthogonalEdgeStyle;rounded=0;orthogonalLoop=1;jettySize=auto;html=1;exitX=0.5;exitY=1;exitDx=0;exitDy=0;entryX=0.5;entryY=0;entryDx=0;entryDy=0;dashed=1;dashPattern=1 4;" edge="1" parent="4RVRERGMYZYqvgAxQxt6-176" source="4RVRERGMYZYqvgAxQxt6-3" target="4RVRERGMYZYqvgAxQxt6-37">
          <mxGeometry relative="1" as="geometry" />
        </mxCell>
        <mxCell id="4RVRERGMYZYqvgAxQxt6-3" value="Worker Image" style="rounded=1;whiteSpace=wrap;html=1;fillColor=#f5f5f5;fontColor=#333333;strokeColor=#666666;" vertex="1" parent="4RVRERGMYZYqvgAxQxt6-176">
          <mxGeometry x="795.5" y="39" width="92" height="20" as="geometry" />
        </mxCell>
        <mxCell id="4RVRERGMYZYqvgAxQxt6-41" value="" style="endArrow=classic;html=1;rounded=0;entryX=0;entryY=0.5;entryDx=0;entryDy=0;dashed=1;" edge="1" parent="4RVRERGMYZYqvgAxQxt6-176" target="4RVRERGMYZYqvgAxQxt6-20">
          <mxGeometry width="50" height="50" relative="1" as="geometry">
            <mxPoint x="204" y="80" as="sourcePoint" />
            <mxPoint x="464" y="200" as="targetPoint" />
          </mxGeometry>
        </mxCell>
        <mxCell id="4RVRERGMYZYqvgAxQxt6-44" value="&amp;nbsp;On initialization&amp;nbsp;" style="edgeLabel;align=center;verticalAlign=middle;resizable=0;points=[];labelPosition=center;verticalLabelPosition=middle;html=1;spacing=2;spacingRight=33;spacingBottom=1;" vertex="1" connectable="0" parent="4RVRERGMYZYqvgAxQxt6-41">
          <mxGeometry x="0.2686" relative="1" as="geometry">
            <mxPoint as="offset" />
          </mxGeometry>
        </mxCell>
        <mxCell id="4RVRERGMYZYqvgAxQxt6-62" style="edgeStyle=orthogonalEdgeStyle;rounded=0;orthogonalLoop=1;jettySize=auto;html=1;exitX=0.5;exitY=1;exitDx=0;exitDy=0;entryX=0.5;entryY=0;entryDx=0;entryDy=0;dashed=1;dashPattern=1 4;" edge="1" parent="4RVRERGMYZYqvgAxQxt6-176" source="4RVRERGMYZYqvgAxQxt6-2" target="4RVRERGMYZYqvgAxQxt6-61">
          <mxGeometry relative="1" as="geometry" />
        </mxCell>
        <mxCell id="4RVRERGMYZYqvgAxQxt6-2" value="Server Image" style="rounded=1;whiteSpace=wrap;html=1;fillColor=#f5f5f5;strokeColor=#666666;fontColor=#333333;" vertex="1" parent="4RVRERGMYZYqvgAxQxt6-176">
          <mxGeometry x="588" y="99" width="92" height="20" as="geometry" />
        </mxCell>
        <mxCell id="4RVRERGMYZYqvgAxQxt6-52" style="edgeStyle=orthogonalEdgeStyle;rounded=0;orthogonalLoop=1;jettySize=auto;html=1;exitX=1;exitY=0.5;exitDx=0;exitDy=0;entryX=0;entryY=0.5;entryDx=0;entryDy=0;" edge="1" parent="4RVRERGMYZYqvgAxQxt6-176" source="4RVRERGMYZYqvgAxQxt6-20" target="4RVRERGMYZYqvgAxQxt6-2">
          <mxGeometry relative="1" as="geometry">
            <mxPoint x="644" y="109" as="sourcePoint" />
            <Array as="points">
              <mxPoint x="494" y="79" />
              <mxPoint x="494" y="109" />
            </Array>
          </mxGeometry>
        </mxCell>
        <mxCell id="4RVRERGMYZYqvgAxQxt6-56" value="&amp;nbsp;Dockerfile&amp;nbsp;" style="edgeLabel;html=1;align=center;verticalAlign=middle;resizable=0;points=[];spacingBottom=-1;" vertex="1" connectable="0" parent="4RVRERGMYZYqvgAxQxt6-52">
          <mxGeometry x="0.4307" y="1" relative="1" as="geometry">
            <mxPoint as="offset" />
          </mxGeometry>
        </mxCell>
        <mxCell id="4RVRERGMYZYqvgAxQxt6-59" style="edgeStyle=orthogonalEdgeStyle;rounded=0;orthogonalLoop=1;jettySize=auto;html=1;exitX=0;exitY=0.5;exitDx=0;exitDy=0;startArrow=classic;startFill=1;endArrow=none;" edge="1" parent="4RVRERGMYZYqvgAxQxt6-176" source="4RVRERGMYZYqvgAxQxt6-58">
          <mxGeometry relative="1" as="geometry">
            <mxPoint x="202.7301490420387" y="165" as="targetPoint" />
          </mxGeometry>
        </mxCell>
        <mxCell id="4RVRERGMYZYqvgAxQxt6-58" value="DOCKER" style="rounded=1;whiteSpace=wrap;html=1;fillColor=#fff2cc;strokeColor=#d6b656;" vertex="1" parent="4RVRERGMYZYqvgAxQxt6-176">
          <mxGeometry x="344" y="150" width="100" height="30" as="geometry" />
        </mxCell>
        <mxCell id="4RVRERGMYZYqvgAxQxt6-61" value="Server Container" style="rounded=1;whiteSpace=wrap;html=1;fillColor=#f5f5f5;strokeColor=#666666;fontColor=#333333;" vertex="1" parent="4RVRERGMYZYqvgAxQxt6-176">
          <mxGeometry x="584" y="230" width="100" height="40" as="geometry" />
        </mxCell>
        <mxCell id="4RVRERGMYZYqvgAxQxt6-66" value="" style="endArrow=classic;html=1;rounded=0;exitX=1;exitY=0.5;exitDx=0;exitDy=0;entryX=0.25;entryY=0;entryDx=0;entryDy=0;edgeStyle=orthogonalEdgeStyle;" edge="1" parent="4RVRERGMYZYqvgAxQxt6-176" source="4RVRERGMYZYqvgAxQxt6-58" target="4RVRERGMYZYqvgAxQxt6-37">
          <mxGeometry width="50" height="50" relative="1" as="geometry">
            <mxPoint x="444" y="170" as="sourcePoint" />
            <mxPoint x="704" y="50" as="targetPoint" />
          </mxGeometry>
        </mxCell>
        <mxCell id="4RVRERGMYZYqvgAxQxt6-67" value="&amp;nbsp;Docker compose up&amp;nbsp;" style="edgeLabel;html=1;align=center;verticalAlign=middle;resizable=0;points=[];spacingRight=18;spacing=4;" vertex="1" connectable="0" parent="4RVRERGMYZYqvgAxQxt6-66">
          <mxGeometry x="-0.5367" relative="1" as="geometry">
            <mxPoint as="offset" />
          </mxGeometry>
        </mxCell>
        <mxCell id="4RVRERGMYZYqvgAxQxt6-70" value="&lt;font style=&quot;font-size: 16px;&quot;&gt;Cluster context manager&lt;/font&gt;" style="text;html=1;align=center;verticalAlign=middle;whiteSpace=wrap;rounded=0;direction=south;horizontal=0;fontSize=13;" vertex="1" parent="4RVRERGMYZYqvgAxQxt6-176">
          <mxGeometry x="1050" y="128" width="30" height="322" as="geometry" />
        </mxCell>
        <mxCell id="4RVRERGMYZYqvgAxQxt6-72" value="" style="endArrow=none;dashed=1;html=1;rounded=0;entryX=0.5;entryY=1;entryDx=0;entryDy=0;" edge="1" parent="4RVRERGMYZYqvgAxQxt6-176" source="4RVRERGMYZYqvgAxQxt6-119" target="4RVRERGMYZYqvgAxQxt6-61">
          <mxGeometry width="50" height="50" relative="1" as="geometry">
            <mxPoint x="634" y="790" as="sourcePoint" />
            <mxPoint x="639.23" y="270" as="targetPoint" />
            <Array as="points" />
          </mxGeometry>
        </mxCell>
        <mxCell id="4RVRERGMYZYqvgAxQxt6-73" value="" style="endArrow=none;dashed=1;html=1;rounded=0;entryX=0.5;entryY=1;entryDx=0;entryDy=0;" edge="1" parent="4RVRERGMYZYqvgAxQxt6-176" target="4RVRERGMYZYqvgAxQxt6-37">
          <mxGeometry width="50" height="50" relative="1" as="geometry">
            <mxPoint x="842" y="926" as="sourcePoint" />
            <mxPoint x="854" y="280" as="targetPoint" />
          </mxGeometry>
        </mxCell>
        <mxCell id="4RVRERGMYZYqvgAxQxt6-74" value="" style="endArrow=classic;html=1;rounded=0;" edge="1" parent="4RVRERGMYZYqvgAxQxt6-176">
          <mxGeometry width="50" height="50" relative="1" as="geometry">
            <mxPoint x="204" y="341" as="sourcePoint" />
            <mxPoint x="634" y="341" as="targetPoint" />
          </mxGeometry>
        </mxCell>
        <mxCell id="4RVRERGMYZYqvgAxQxt6-75" value="Transfer simulation model&lt;div&gt;(gRPC)&lt;/div&gt;" style="edgeLabel;html=1;align=center;verticalAlign=middle;resizable=0;points=[];" vertex="1" connectable="0" parent="4RVRERGMYZYqvgAxQxt6-74">
          <mxGeometry x="-0.2565" y="-1" relative="1" as="geometry">
            <mxPoint as="offset" />
          </mxGeometry>
        </mxCell>
        <mxCell id="4RVRERGMYZYqvgAxQxt6-76" value="" style="endArrow=classic;html=1;rounded=0;" edge="1" parent="4RVRERGMYZYqvgAxQxt6-176">
          <mxGeometry width="50" height="50" relative="1" as="geometry">
            <mxPoint x="634" y="365.41" as="sourcePoint" />
            <mxPoint x="204" y="365.41" as="targetPoint" />
          </mxGeometry>
        </mxCell>
        <mxCell id="4RVRERGMYZYqvgAxQxt6-77" value="ACK" style="edgeLabel;html=1;align=center;verticalAlign=middle;resizable=0;points=[];" vertex="1" connectable="0" parent="4RVRERGMYZYqvgAxQxt6-76">
          <mxGeometry x="-0.0938" relative="1" as="geometry">
            <mxPoint as="offset" />
          </mxGeometry>
        </mxCell>
        <mxCell id="4RVRERGMYZYqvgAxQxt6-78" value="" style="endArrow=none;html=1;rounded=0;startArrow=classic;startFill=1;" edge="1" parent="4RVRERGMYZYqvgAxQxt6-176">
          <mxGeometry width="50" height="50" relative="1" as="geometry">
            <mxPoint x="634" y="294" as="sourcePoint" />
            <mxPoint x="844" y="294" as="targetPoint" />
          </mxGeometry>
        </mxCell>
        <mxCell id="4RVRERGMYZYqvgAxQxt6-79" value="Request simulation model&lt;div&gt;on worker connected&lt;br&gt;&lt;div&gt;(gRPC)&lt;/div&gt;&lt;/div&gt;" style="edgeLabel;html=1;align=center;verticalAlign=middle;resizable=0;points=[];spacingLeft=34;" vertex="1" connectable="0" parent="4RVRERGMYZYqvgAxQxt6-78">
          <mxGeometry x="-0.2562" y="-1" relative="1" as="geometry">
            <mxPoint y="-1" as="offset" />
          </mxGeometry>
        </mxCell>
        <mxCell id="4RVRERGMYZYqvgAxQxt6-80" value="" style="endArrow=classic;html=1;rounded=0;" edge="1" parent="4RVRERGMYZYqvgAxQxt6-176">
          <mxGeometry width="50" height="50" relative="1" as="geometry">
            <mxPoint x="634" y="324" as="sourcePoint" />
            <mxPoint x="844" y="324" as="targetPoint" />
          </mxGeometry>
        </mxCell>
        <mxCell id="4RVRERGMYZYqvgAxQxt6-81" value="&amp;nbsp;Status: Not on server&amp;nbsp;" style="edgeLabel;html=1;align=center;verticalAlign=middle;resizable=0;points=[];spacingLeft=-120;" vertex="1" connectable="0" parent="4RVRERGMYZYqvgAxQxt6-80">
          <mxGeometry x="0.4609" y="-1" relative="1" as="geometry">
            <mxPoint y="-1" as="offset" />
          </mxGeometry>
        </mxCell>
        <mxCell id="4RVRERGMYZYqvgAxQxt6-83" value="" style="endArrow=classic;html=1;rounded=0;edgeStyle=elbowEdgeStyle;" edge="1" parent="4RVRERGMYZYqvgAxQxt6-176">
          <mxGeometry width="50" height="50" relative="1" as="geometry">
            <mxPoint x="846" y="324" as="sourcePoint" />
            <mxPoint x="846" y="294" as="targetPoint" />
            <Array as="points">
              <mxPoint x="866" y="314" />
            </Array>
          </mxGeometry>
        </mxCell>
        <mxCell id="4RVRERGMYZYqvgAxQxt6-84" value="wait&amp;nbsp;" style="text;html=1;align=center;verticalAlign=middle;whiteSpace=wrap;rounded=0;" vertex="1" parent="4RVRERGMYZYqvgAxQxt6-176">
          <mxGeometry x="864" y="294" width="60" height="30" as="geometry" />
        </mxCell>
        <mxCell id="4RVRERGMYZYqvgAxQxt6-88" value="" style="endArrow=none;html=1;rounded=0;startArrow=classic;startFill=1;" edge="1" parent="4RVRERGMYZYqvgAxQxt6-176">
          <mxGeometry width="50" height="50" relative="1" as="geometry">
            <mxPoint x="634" y="394.5" as="sourcePoint" />
            <mxPoint x="844" y="394.5" as="targetPoint" />
          </mxGeometry>
        </mxCell>
        <mxCell id="4RVRERGMYZYqvgAxQxt6-89" value="Request simulation model&lt;div&gt;on worker connected&lt;br&gt;&lt;div&gt;(gRPC)&lt;/div&gt;&lt;/div&gt;" style="edgeLabel;html=1;align=center;verticalAlign=middle;resizable=0;points=[];spacingLeft=34;" vertex="1" connectable="0" parent="4RVRERGMYZYqvgAxQxt6-88">
          <mxGeometry x="-0.2562" y="-1" relative="1" as="geometry">
            <mxPoint y="-1" as="offset" />
          </mxGeometry>
        </mxCell>
        <mxCell id="4RVRERGMYZYqvgAxQxt6-90" value="" style="endArrow=classic;html=1;rounded=0;" edge="1" parent="4RVRERGMYZYqvgAxQxt6-176">
          <mxGeometry width="50" height="50" relative="1" as="geometry">
            <mxPoint x="634" y="440" as="sourcePoint" />
            <mxPoint x="844" y="440" as="targetPoint" />
          </mxGeometry>
        </mxCell>
        <mxCell id="4RVRERGMYZYqvgAxQxt6-91" value="&amp;nbsp;Status: On server&lt;div&gt;payload: model archive&lt;/div&gt;" style="edgeLabel;html=1;align=center;verticalAlign=middle;resizable=0;points=[];spacingLeft=-120;" vertex="1" connectable="0" parent="4RVRERGMYZYqvgAxQxt6-90">
          <mxGeometry x="0.4609" y="-1" relative="1" as="geometry">
            <mxPoint y="-1" as="offset" />
          </mxGeometry>
        </mxCell>
        <mxCell id="4RVRERGMYZYqvgAxQxt6-92" value="unpack model on worker" style="text;html=1;align=center;verticalAlign=middle;whiteSpace=wrap;rounded=0;" vertex="1" parent="4RVRERGMYZYqvgAxQxt6-176">
          <mxGeometry x="864" y="430" width="60" height="30" as="geometry" />
        </mxCell>
        <mxCell id="4RVRERGMYZYqvgAxQxt6-93" value="" style="endArrow=none;html=1;rounded=0;startArrow=classic;startFill=1;" edge="1" parent="4RVRERGMYZYqvgAxQxt6-176">
          <mxGeometry width="50" height="50" relative="1" as="geometry">
            <mxPoint x="634" y="490" as="sourcePoint" />
            <mxPoint x="844" y="490" as="targetPoint" />
          </mxGeometry>
        </mxCell>
        <mxCell id="4RVRERGMYZYqvgAxQxt6-94" value="&amp;nbsp;Request simulation job&amp;nbsp;&lt;div&gt;&lt;div&gt;(gRPC)&lt;/div&gt;&lt;/div&gt;" style="edgeLabel;html=1;align=center;verticalAlign=middle;resizable=0;points=[];spacingLeft=34;" vertex="1" connectable="0" parent="4RVRERGMYZYqvgAxQxt6-93">
          <mxGeometry x="-0.2562" y="-1" relative="1" as="geometry">
            <mxPoint y="-1" as="offset" />
          </mxGeometry>
        </mxCell>
        <mxCell id="4RVRERGMYZYqvgAxQxt6-95" value="" style="endArrow=classic;html=1;rounded=0;" edge="1" parent="4RVRERGMYZYqvgAxQxt6-176">
          <mxGeometry width="50" height="50" relative="1" as="geometry">
            <mxPoint x="634" y="520" as="sourcePoint" />
            <mxPoint x="844" y="520" as="targetPoint" />
          </mxGeometry>
        </mxCell>
        <mxCell id="4RVRERGMYZYqvgAxQxt6-96" value="&amp;nbsp;Status: No jobs available&amp;nbsp;" style="edgeLabel;html=1;align=center;verticalAlign=middle;resizable=0;points=[];spacingLeft=-120;" vertex="1" connectable="0" parent="4RVRERGMYZYqvgAxQxt6-95">
          <mxGeometry x="0.4609" y="-1" relative="1" as="geometry">
            <mxPoint y="-1" as="offset" />
          </mxGeometry>
        </mxCell>
        <mxCell id="4RVRERGMYZYqvgAxQxt6-97" value="" style="endArrow=classic;html=1;rounded=0;edgeStyle=elbowEdgeStyle;" edge="1" parent="4RVRERGMYZYqvgAxQxt6-176">
          <mxGeometry width="50" height="50" relative="1" as="geometry">
            <mxPoint x="846" y="520" as="sourcePoint" />
            <mxPoint x="846" y="490" as="targetPoint" />
            <Array as="points">
              <mxPoint x="866" y="510" />
            </Array>
          </mxGeometry>
        </mxCell>
        <mxCell id="4RVRERGMYZYqvgAxQxt6-98" value="wait&amp;nbsp;" style="text;html=1;align=center;verticalAlign=middle;whiteSpace=wrap;rounded=0;" vertex="1" parent="4RVRERGMYZYqvgAxQxt6-176">
          <mxGeometry x="864" y="490" width="60" height="30" as="geometry" />
        </mxCell>
        <mxCell id="4RVRERGMYZYqvgAxQxt6-100" value="" style="endArrow=classic;html=1;rounded=0;" edge="1" parent="4RVRERGMYZYqvgAxQxt6-176">
          <mxGeometry width="50" height="50" relative="1" as="geometry">
            <mxPoint x="204" y="570" as="sourcePoint" />
            <mxPoint x="634" y="570" as="targetPoint" />
          </mxGeometry>
        </mxCell>
        <mxCell id="4RVRERGMYZYqvgAxQxt6-101" value="&amp;nbsp;Perform simulations&amp;nbsp;&lt;br&gt;&lt;div&gt;(gRPC)&lt;/div&gt;" style="edgeLabel;html=1;align=center;verticalAlign=middle;resizable=0;points=[];" vertex="1" connectable="0" parent="4RVRERGMYZYqvgAxQxt6-100">
          <mxGeometry x="-0.2565" y="-1" relative="1" as="geometry">
            <mxPoint as="offset" />
          </mxGeometry>
        </mxCell>
        <mxCell id="4RVRERGMYZYqvgAxQxt6-104" value="" style="endArrow=none;html=1;rounded=0;startArrow=classic;startFill=1;" edge="1" parent="4RVRERGMYZYqvgAxQxt6-176">
          <mxGeometry width="50" height="50" relative="1" as="geometry">
            <mxPoint x="634" y="590" as="sourcePoint" />
            <mxPoint x="844" y="590" as="targetPoint" />
          </mxGeometry>
        </mxCell>
        <mxCell id="4RVRERGMYZYqvgAxQxt6-105" value="&amp;nbsp;Request simulation job&amp;nbsp;&lt;div&gt;&lt;div&gt;(gRPC)&lt;/div&gt;&lt;/div&gt;" style="edgeLabel;html=1;align=center;verticalAlign=middle;resizable=0;points=[];spacingLeft=34;" vertex="1" connectable="0" parent="4RVRERGMYZYqvgAxQxt6-104">
          <mxGeometry x="-0.2562" y="-1" relative="1" as="geometry">
            <mxPoint y="-1" as="offset" />
          </mxGeometry>
        </mxCell>
        <mxCell id="4RVRERGMYZYqvgAxQxt6-106" value="" style="endArrow=classic;html=1;rounded=0;" edge="1" parent="4RVRERGMYZYqvgAxQxt6-176">
          <mxGeometry width="50" height="50" relative="1" as="geometry">
            <mxPoint x="634" y="630" as="sourcePoint" />
            <mxPoint x="844" y="630" as="targetPoint" />
          </mxGeometry>
        </mxCell>
        <mxCell id="4RVRERGMYZYqvgAxQxt6-107" value="&amp;nbsp;Status: New&lt;div&gt;payload: simulation case&amp;nbsp;&lt;/div&gt;" style="edgeLabel;html=1;align=center;verticalAlign=middle;resizable=0;points=[];spacingLeft=-120;" vertex="1" connectable="0" parent="4RVRERGMYZYqvgAxQxt6-106">
          <mxGeometry x="0.4609" y="-1" relative="1" as="geometry">
            <mxPoint y="-1" as="offset" />
          </mxGeometry>
        </mxCell>
        <mxCell id="4RVRERGMYZYqvgAxQxt6-112" value="" style="endArrow=none;html=1;rounded=0;startArrow=classic;startFill=1;" edge="1" parent="4RVRERGMYZYqvgAxQxt6-176">
          <mxGeometry width="50" height="50" relative="1" as="geometry">
            <mxPoint x="634" y="680" as="sourcePoint" />
            <mxPoint x="844" y="680" as="targetPoint" />
          </mxGeometry>
        </mxCell>
        <mxCell id="4RVRERGMYZYqvgAxQxt6-113" value="&amp;nbsp;Simulation results&amp;nbsp;&lt;div&gt;(gRPC)&lt;/div&gt;" style="edgeLabel;html=1;align=center;verticalAlign=middle;resizable=0;points=[];spacingLeft=34;" vertex="1" connectable="0" parent="4RVRERGMYZYqvgAxQxt6-112">
          <mxGeometry x="-0.2562" y="-1" relative="1" as="geometry">
            <mxPoint y="-1" as="offset" />
          </mxGeometry>
        </mxCell>
        <mxCell id="4RVRERGMYZYqvgAxQxt6-114" value="&lt;i&gt;N&lt;/i&gt; containers" style="text;html=1;align=center;verticalAlign=middle;whiteSpace=wrap;rounded=0;" vertex="1" parent="4RVRERGMYZYqvgAxQxt6-176">
          <mxGeometry x="924" y="230" width="60" height="30" as="geometry" />
        </mxCell>
        <mxCell id="4RVRERGMYZYqvgAxQxt6-118" value="" style="rounded=1;whiteSpace=wrap;html=1;" vertex="1" parent="4RVRERGMYZYqvgAxQxt6-176">
          <mxGeometry x="924" y="590" width="50" height="40" as="geometry" />
        </mxCell>
        <mxCell id="4RVRERGMYZYqvgAxQxt6-117" value="" style="rounded=1;whiteSpace=wrap;html=1;" vertex="1" parent="4RVRERGMYZYqvgAxQxt6-176">
          <mxGeometry x="914" y="598" width="50" height="40" as="geometry" />
        </mxCell>
        <mxCell id="4RVRERGMYZYqvgAxQxt6-116" value="" style="rounded=1;whiteSpace=wrap;html=1;" vertex="1" parent="4RVRERGMYZYqvgAxQxt6-176">
          <mxGeometry x="904" y="610" width="50" height="40" as="geometry" />
        </mxCell>
        <mxCell id="4RVRERGMYZYqvgAxQxt6-109" value="Run simulation" style="rounded=1;whiteSpace=wrap;html=1;" vertex="1" parent="4RVRERGMYZYqvgAxQxt6-176">
          <mxGeometry x="854" y="620" width="90" height="70" as="geometry" />
        </mxCell>
        <mxCell id="4RVRERGMYZYqvgAxQxt6-120" value="" style="endArrow=none;dashed=1;html=1;rounded=0;entryX=0.5;entryY=1;entryDx=0;entryDy=0;" edge="1" parent="4RVRERGMYZYqvgAxQxt6-176" target="4RVRERGMYZYqvgAxQxt6-119">
          <mxGeometry width="50" height="50" relative="1" as="geometry">
            <mxPoint x="634" y="922" as="sourcePoint" />
            <mxPoint x="634" y="270" as="targetPoint" />
            <Array as="points" />
          </mxGeometry>
        </mxCell>
        <mxCell id="4RVRERGMYZYqvgAxQxt6-119" value="when all&amp;nbsp;&lt;div&gt;completed&lt;/div&gt;" style="text;html=1;align=center;verticalAlign=middle;whiteSpace=wrap;rounded=0;" vertex="1" parent="4RVRERGMYZYqvgAxQxt6-176">
          <mxGeometry x="604" y="694" width="60" height="30" as="geometry" />
        </mxCell>
        <mxCell id="4RVRERGMYZYqvgAxQxt6-121" value="" style="endArrow=classic;html=1;rounded=0;" edge="1" parent="4RVRERGMYZYqvgAxQxt6-176">
          <mxGeometry width="50" height="50" relative="1" as="geometry">
            <mxPoint x="634" y="750" as="sourcePoint" />
            <mxPoint x="204" y="750" as="targetPoint" />
          </mxGeometry>
        </mxCell>
        <mxCell id="4RVRERGMYZYqvgAxQxt6-122" value="&amp;nbsp;Response&amp;nbsp;" style="edgeLabel;html=1;align=center;verticalAlign=middle;resizable=0;points=[];" vertex="1" connectable="0" parent="4RVRERGMYZYqvgAxQxt6-121">
          <mxGeometry x="-0.0938" relative="1" as="geometry">
            <mxPoint as="offset" />
          </mxGeometry>
        </mxCell>
        <mxCell id="4RVRERGMYZYqvgAxQxt6-127" value="&lt;p style=&quot;margin:0px;margin-top:4px;text-align:center;text-decoration:underline;&quot;&gt;&lt;b&gt;Simulation case&lt;/b&gt;&lt;/p&gt;&lt;hr style=&quot;border-style:solid;&quot;&gt;&lt;p style=&quot;margin:0px;margin-left:8px;&quot;&gt;wells = {...}&lt;br&gt;control_vector ={...}&lt;br&gt;results = &lt;font style=&quot;color: rgb(255, 0, 0);&quot;&gt;NONE&lt;/font&gt;&lt;/p&gt;" style="verticalAlign=top;align=left;overflow=fill;html=1;whiteSpace=wrap;fontSize=10;" vertex="1" parent="4RVRERGMYZYqvgAxQxt6-176">
          <mxGeometry x="44" y="530" width="128" height="70" as="geometry" />
        </mxCell>
        <mxCell id="4RVRERGMYZYqvgAxQxt6-130" value="&lt;p style=&quot;margin:0px;margin-top:4px;text-align:center;text-decoration:underline;&quot;&gt;&lt;b&gt;Simulation model&amp;nbsp;&lt;/b&gt;&lt;/p&gt;&lt;p style=&quot;margin:0px;margin-top:4px;text-align:center;text-decoration:underline;&quot;&gt;&lt;b&gt;archive&lt;/b&gt;&lt;/p&gt;" style="verticalAlign=top;align=left;overflow=fill;html=1;whiteSpace=wrap;fontSize=10;" vertex="1" parent="4RVRERGMYZYqvgAxQxt6-176">
          <mxGeometry x="67" y="332" width="128" height="38" as="geometry" />
        </mxCell>
        <mxCell id="4RVRERGMYZYqvgAxQxt6-135" value="&lt;p style=&quot;margin:0px;margin-top:4px;text-align:center;text-decoration:underline;&quot;&gt;&lt;b&gt;Start simulation&lt;/b&gt;&lt;/p&gt;&lt;p style=&quot;margin:0px;margin-top:4px;text-align:center;text-decoration:underline;&quot;&gt;&lt;b&gt;cluster&lt;/b&gt;&lt;/p&gt;" style="verticalAlign=top;align=left;overflow=fill;html=1;whiteSpace=wrap;fontSize=10;" vertex="1" parent="4RVRERGMYZYqvgAxQxt6-176">
          <mxGeometry x="67" y="146" width="128" height="38" as="geometry" />
        </mxCell>
        <mxCell id="4RVRERGMYZYqvgAxQxt6-136" value="&lt;p style=&quot;margin:0px;margin-top:4px;text-align:center;text-decoration:underline;&quot;&gt;&lt;b&gt;Shutdown simulation&lt;/b&gt;&lt;/p&gt;&lt;p style=&quot;margin:0px;margin-top:4px;text-align:center;text-decoration:underline;&quot;&gt;&lt;b&gt;cluster&lt;/b&gt;&lt;/p&gt;" style="verticalAlign=top;align=left;overflow=fill;html=1;whiteSpace=wrap;fontSize=10;" vertex="1" parent="4RVRERGMYZYqvgAxQxt6-176">
          <mxGeometry x="67" y="850" width="128" height="38" as="geometry" />
        </mxCell>
        <mxCell id="4RVRERGMYZYqvgAxQxt6-141" value="" style="rounded=0;whiteSpace=wrap;html=1;" vertex="1" parent="4RVRERGMYZYqvgAxQxt6-176">
          <mxGeometry x="67" y="698" width="120" height="60" as="geometry" />
        </mxCell>
        <mxCell id="4RVRERGMYZYqvgAxQxt6-142" value="" style="rounded=0;whiteSpace=wrap;html=1;" vertex="1" parent="4RVRERGMYZYqvgAxQxt6-176">
          <mxGeometry x="59" y="708" width="120" height="60" as="geometry" />
        </mxCell>
        <mxCell id="4RVRERGMYZYqvgAxQxt6-143" value="&lt;p style=&quot;margin:0px;margin-top:4px;text-align:center;text-decoration:underline;&quot;&gt;&lt;b&gt;Simulation case&lt;/b&gt;&lt;/p&gt;&lt;hr style=&quot;border-style:solid;&quot;&gt;&lt;p style=&quot;margin:0px;margin-left:8px;&quot;&gt;wells = {...}&lt;br&gt;control_vector ={...}&lt;br&gt;results =&lt;font style=&quot;color: rgb(0, 0, 0);&quot;&gt; &lt;font&gt;{...}&lt;/font&gt;&lt;/font&gt;&lt;/p&gt;" style="verticalAlign=top;align=left;overflow=fill;html=1;whiteSpace=wrap;fontSize=10;" vertex="1" parent="4RVRERGMYZYqvgAxQxt6-176">
          <mxGeometry x="43" y="718" width="128" height="70" as="geometry" />
        </mxCell>
        <mxCell id="4RVRERGMYZYqvgAxQxt6-145" value="&lt;span style=&quot;font-weight: normal;&quot;&gt;Process request&lt;/span&gt;" style="swimlane;horizontal=0;whiteSpace=wrap;html=1;startSize=23;container=0;" vertex="1" parent="4RVRERGMYZYqvgAxQxt6-176">
          <mxGeometry y="488" width="200" height="310" as="geometry">
            <mxRectangle x="-74" y="548" width="32" height="138" as="alternateBounds" />
          </mxGeometry>
        </mxCell>
        <mxCell id="4RVRERGMYZYqvgAxQxt6-147" value="&lt;span style=&quot;font-weight: normal;&quot;&gt;Transfer simulation model&lt;/span&gt;" style="swimlane;horizontal=0;whiteSpace=wrap;html=1;startSize=23;container=0;" vertex="1" parent="4RVRERGMYZYqvgAxQxt6-176">
          <mxGeometry y="280" width="200" height="157" as="geometry">
            <mxRectangle x="-74" y="548" width="32" height="138" as="alternateBounds" />
          </mxGeometry>
        </mxCell>
        <mxCell id="4RVRERGMYZYqvgAxQxt6-158" value="" style="endArrow=classic;html=1;rounded=0;exitX=1;exitY=0.5;exitDx=0;exitDy=0;entryX=0.25;entryY=0;entryDx=0;entryDy=0;edgeStyle=orthogonalEdgeStyle;" edge="1" parent="4RVRERGMYZYqvgAxQxt6-176" target="4RVRERGMYZYqvgAxQxt6-166">
          <mxGeometry width="50" height="50" relative="1" as="geometry">
            <mxPoint x="437.27" y="868" as="sourcePoint" />
            <mxPoint x="610.27" y="883" as="targetPoint" />
          </mxGeometry>
        </mxCell>
        <mxCell id="4RVRERGMYZYqvgAxQxt6-159" value="" style="group" vertex="1" connectable="0" parent="4RVRERGMYZYqvgAxQxt6-176">
          <mxGeometry x="785.27" y="903" width="150" height="90" as="geometry" />
        </mxCell>
        <mxCell id="4RVRERGMYZYqvgAxQxt6-160" value="" style="rounded=1;whiteSpace=wrap;html=1;fillColor=#f5f5f5;fontColor=#333333;strokeColor=#666666;" vertex="1" parent="4RVRERGMYZYqvgAxQxt6-159">
          <mxGeometry x="100" width="50" height="30" as="geometry" />
        </mxCell>
        <mxCell id="4RVRERGMYZYqvgAxQxt6-161" value="" style="rounded=1;whiteSpace=wrap;html=1;fillColor=#f5f5f5;fontColor=#333333;strokeColor=#666666;" vertex="1" parent="4RVRERGMYZYqvgAxQxt6-159">
          <mxGeometry x="90" y="10" width="50" height="30" as="geometry" />
        </mxCell>
        <mxCell id="4RVRERGMYZYqvgAxQxt6-162" value="" style="rounded=1;whiteSpace=wrap;html=1;fillColor=#f5f5f5;fontColor=#333333;strokeColor=#666666;" vertex="1" parent="4RVRERGMYZYqvgAxQxt6-159">
          <mxGeometry x="80" y="20" width="50" height="30" as="geometry" />
        </mxCell>
        <mxCell id="4RVRERGMYZYqvgAxQxt6-163" value="Worker(s)&lt;div&gt;Container&lt;/div&gt;" style="rounded=1;whiteSpace=wrap;html=1;fillColor=#f5f5f5;fontColor=#333333;strokeColor=#666666;" vertex="1" parent="4RVRERGMYZYqvgAxQxt6-159">
          <mxGeometry y="30" width="120" height="40" as="geometry" />
        </mxCell>
        <mxCell id="4RVRERGMYZYqvgAxQxt6-164" style="edgeStyle=orthogonalEdgeStyle;rounded=0;orthogonalLoop=1;jettySize=auto;html=1;exitX=0;exitY=0.5;exitDx=0;exitDy=0;startArrow=classic;startFill=1;endArrow=none;" edge="1" parent="4RVRERGMYZYqvgAxQxt6-176" source="4RVRERGMYZYqvgAxQxt6-165">
          <mxGeometry relative="1" as="geometry">
            <mxPoint x="206.00014904203871" y="868" as="targetPoint" />
          </mxGeometry>
        </mxCell>
        <mxCell id="4RVRERGMYZYqvgAxQxt6-165" value="DOCKER" style="rounded=1;whiteSpace=wrap;html=1;fillColor=#fff2cc;strokeColor=#d6b656;" vertex="1" parent="4RVRERGMYZYqvgAxQxt6-176">
          <mxGeometry x="347.27" y="853" width="100" height="30" as="geometry" />
        </mxCell>
        <mxCell id="4RVRERGMYZYqvgAxQxt6-172" value="" style="edgeStyle=orthogonalEdgeStyle;rounded=0;orthogonalLoop=1;jettySize=auto;html=1;" edge="1" parent="4RVRERGMYZYqvgAxQxt6-176" source="4RVRERGMYZYqvgAxQxt6-166" target="4RVRERGMYZYqvgAxQxt6-171">
          <mxGeometry relative="1" as="geometry" />
        </mxCell>
        <mxCell id="4RVRERGMYZYqvgAxQxt6-166" value="Server Container" style="rounded=1;whiteSpace=wrap;html=1;fillColor=#f5f5f5;strokeColor=#666666;fontColor=#333333;" vertex="1" parent="4RVRERGMYZYqvgAxQxt6-176">
          <mxGeometry x="587.27" y="933" width="100" height="40" as="geometry" />
        </mxCell>
        <mxCell id="4RVRERGMYZYqvgAxQxt6-167" value="" style="endArrow=classic;html=1;rounded=0;exitX=1;exitY=0.5;exitDx=0;exitDy=0;entryX=0.25;entryY=0;entryDx=0;entryDy=0;edgeStyle=orthogonalEdgeStyle;" edge="1" parent="4RVRERGMYZYqvgAxQxt6-176" source="4RVRERGMYZYqvgAxQxt6-165" target="4RVRERGMYZYqvgAxQxt6-163">
          <mxGeometry width="50" height="50" relative="1" as="geometry">
            <mxPoint x="447.27" y="873" as="sourcePoint" />
            <mxPoint x="707.27" y="753" as="targetPoint" />
          </mxGeometry>
        </mxCell>
        <mxCell id="4RVRERGMYZYqvgAxQxt6-168" value="&amp;nbsp;Docker compose down&amp;nbsp;" style="edgeLabel;html=1;align=center;verticalAlign=middle;resizable=0;points=[];spacingRight=18;spacing=4;" vertex="1" connectable="0" parent="4RVRERGMYZYqvgAxQxt6-167">
          <mxGeometry x="-0.5367" relative="1" as="geometry">
            <mxPoint as="offset" />
          </mxGeometry>
        </mxCell>
        <mxCell id="4RVRERGMYZYqvgAxQxt6-171" value="" style="shape=waypoint;sketch=0;size=6;pointerEvents=1;points=[];fillColor=#f5f5f5;resizable=0;rotatable=0;perimeter=centerPerimeter;snapToPoint=1;strokeColor=#666666;fontColor=#333333;rounded=1;" vertex="1" parent="4RVRERGMYZYqvgAxQxt6-176">
          <mxGeometry x="627.27" y="999" width="20" height="20" as="geometry" />
        </mxCell>
        <mxCell id="4RVRERGMYZYqvgAxQxt6-173" value="" style="shape=waypoint;sketch=0;size=6;pointerEvents=1;points=[];fillColor=#f5f5f5;resizable=0;rotatable=0;perimeter=centerPerimeter;snapToPoint=1;strokeColor=#666666;fontColor=#333333;rounded=1;" vertex="1" parent="4RVRERGMYZYqvgAxQxt6-176">
          <mxGeometry x="835.27" y="999" width="20" height="20" as="geometry" />
        </mxCell>
        <mxCell id="4RVRERGMYZYqvgAxQxt6-174" value="" style="edgeStyle=orthogonalEdgeStyle;rounded=0;orthogonalLoop=1;jettySize=auto;html=1;" edge="1" parent="4RVRERGMYZYqvgAxQxt6-176" source="4RVRERGMYZYqvgAxQxt6-163" target="4RVRERGMYZYqvgAxQxt6-173">
          <mxGeometry relative="1" as="geometry" />
        </mxCell>
      </root>
    </mxGraphModel>
  </diagram>
</mxfile>
